<?xml version="1.0" encoding="UTF-8" standalone="no"?>
<svg
   xmlns:dc="http://purl.org/dc/elements/1.1/"
   xmlns:cc="http://creativecommons.org/ns#"
   xmlns:rdf="http://www.w3.org/1999/02/22-rdf-syntax-ns#"
   xmlns:svg="http://www.w3.org/2000/svg"
   xmlns="http://www.w3.org/2000/svg"
   xmlns:sodipodi="http://sodipodi.sourceforge.net/DTD/sodipodi-0.dtd"
   xmlns:inkscape="http://www.inkscape.org/namespaces/inkscape"
   version="1.1"
   id="svg2"
   xml:space="preserve"
   width="958.88"
   height="903.25336"
   viewBox="0 0 958.88 903.25336"
   sodipodi:docname="cooking-seeklogo.com.eps"><metadata
     id="metadata8"><rdf:RDF><cc:Work
         rdf:about=""><dc:format>image/svg+xml</dc:format><dc:type
           rdf:resource="http://purl.org/dc/dcmitype/StillImage" /></cc:Work></rdf:RDF></metadata><defs
     id="defs6" /><sodipodi:namedview
     pagecolor="#ffffff"
     bordercolor="#666666"
     borderopacity="1"
     objecttolerance="10"
     gridtolerance="10"
     guidetolerance="10"
     inkscape:pageopacity="0"
     inkscape:pageshadow="2"
     inkscape:window-width="640"
     inkscape:window-height="480"
     id="namedview4" /><g
     id="g10"
     inkscape:groupmode="layer"
     inkscape:label="ink_ext_XXXXXX"
     transform="matrix(1.3333333,0,0,-1.3333333,0,903.25333)"><g
       id="g12"
       transform="scale(0.1)"><path
         d="m 7064.32,2702.02 c -66.02,0 -132.06,0 -198.08,0 -179.02,0 -358.03,0 -537.05,0 -263.38,0 -526.76,0 -790.16,0 -319.15,0 -638.3,0 -957.46,0 -346.31,0 -692.63,0 -1038.95,0 -344.86,0 -689.72,0 -1034.59,0 -314.8,0 -629.61,0 -944.41,0 -256.14,0 -512.29,0 -768.425,0 -168.859,0 -337.73,0 -506.59,0 -42.765,0 -85.527,0 -128.292,0 -9.344,0 -18.864,-0.51 -28.2,0 -35.695,1.98 -46.7302,26.89 -46.7302,59.18 0,40.09 0,80.18 0,120.26 0,31.75 1.3906,65.6 42.0942,69.1 4.519,0.39 9.218,-0.04 13.75,0 33.882,0.34 67.789,0 101.675,0 154.161,0 308.325,0 462.485,0 246.453,0 492.903,0 739.343,0 308.39,0 616.78,0 925.17,0 342.4,0 684.81,0 1027.21,0 347.83,0 695.65,0 1043.47,0 324.62,0 649.25,0 973.87,0 272.82,0 545.63,0 818.46,0 192.41,0 384.81,0 577.21,0 82.87,0 167.39,4.82 250.16,0 35.71,-2.08 46.12,-27.2 46.12,-59.18 0,-38.23 0,-76.46 0,-114.69 0,-32.29 1.8,-72.11 -42.08,-74.67 -53.84,-3.13 -54.2,-87.32 0,-84.17 65.46,3.81 119.64,49.24 125.69,116.48 2.83,31.48 0.56,63.92 0.56,95.48 0,32.52 3.42,67.38 -2.07,99.64 -10.46,61.46 -63.22,102.73 -124.19,105.28 -17.72,0.74 -35.63,0 -53.37,0 -130.31,0 -260.62,0 -390.93,0 -230.66,0 -461.31,0 -691.97,0 -303.62,0 -607.23,0 -910.86,0 -342.61,0 -685.23,0 -1027.85,0 -353.63,0 -707.27,0 -1060.91,0 -336.97,0 -673.95,0 -1010.92,0 -285.9,0 -571.8,0 -857.7,0 -207.902,0 -415.796,0 -623.695,0 -98.75,0 -197.531,0.73 -296.277,0 -9.473,-0.07 -18.176,-0.14 -27.734,-1.32 -64.2268,-7.92 -108.03931,-61.83 -110.87916,-124.93 -1.386715,-30.78 0,-61.93 0,-92.73 0,-32.55 -4.47265,-70.09 3.73829,-102.07 14.60157,-56.93 65.02347,-93.42 122.53887,-95.83 4.805,-0.2 9.656,0 14.461,0 101.231,0 202.457,0 303.688,0 209.765,0 419.531,0 629.299,0 287.17,0 574.33,0 861.5,0 336.49,0 672.97,0 1009.45,0 354.88,0 709.75,0 1064.62,0 342.09,0 684.18,0 1026.27,0 301.59,0 603.19,0 904.78,0 229.83,0 459.67,0 689.5,0 127.77,0 255.54,0 383.31,0 16.65,0 33.3,0 49.95,0 54.16,0 54.25,84.17 0,84.17"
         style="fill:#040606;fill-opacity:1;fill-rule:nonzero;stroke:none"
         id="path14" /><path
         d="m 439.984,2659.94 c -87.972,0 -108.062,-49.88 -44.64,-110.86 l 431.59,-414.91 c 63.421,-60.96 187.286,-110.85 275.266,-110.85 h 5169.74 c 87.97,0 203.09,57.62 255.82,128.04 l 284.92,380.54 c 52.74,70.42 23.9,128.04 -64.08,128.04 H 439.984"
         style="fill:#040606;fill-opacity:1;fill-rule:nonzero;stroke:none"
         id="path16" /><path
         d="m 395.695,2989.45 c 0.5,335.4 52.098,669 155.371,988.21 100.004,309.13 248.102,601.89 436.196,866.74 184.638,259.98 409.428,493.08 662.608,686.98 255.82,195.9 541.36,353.98 844,464.73 312.76,114.44 642.54,179.66 975.32,192.64 338.42,13.21 677.85,-26.26 1003.75,-118.66 312.07,-88.47 609.35,-224.89 880.52,-402.82 267.59,-175.57 507.99,-391.67 712.28,-637.97 205.71,-248.01 374.58,-528.75 496.25,-827.17 124.93,-306.45 202.57,-632.17 227.77,-962.19 6.37,-83.35 9.41,-166.9 9.53,-250.49 0.08,-54.16 84.25,-54.26 84.17,0 -0.52,343.93 -53.44,687.86 -159.82,1015.06 -102.64,315.66 -253.32,615.78 -445.91,886.13 -191.26,268.51 -421.5,506.92 -682.83,707.81 -262.77,201.99 -555.96,362.87 -867.01,477.21 -320.87,117.95 -660.55,183.98 -1002.08,197.26 -345.39,13.44 -693.55,-27.37 -1026.14,-121.67 C 2379.6,6060.51 2073.08,5920.31 1795.18,5737.42 1520.69,5556.75 1272.96,5335.28 1063.86,5081.73 852.828,4825.83 681.48,4539.92 555.379,4233.15 426.039,3918.52 347.797,3583.88 321.43,3244.81 c -6.606,-84.97 -9.774,-170.14 -9.903,-255.36 -0.082,-54.16 84.09,-54.25 84.168,0 v 0"
         style="fill:#040606;fill-opacity:1;fill-rule:nonzero;stroke:none"
         id="path18" /><path
         d="m 596.973,3111.13 c 0,1657.14 1343.377,3000.52 3000.527,3000.52 1657.13,0 3000.51,-1343.38 3000.51,-3000.52"
         style="fill:#040606;fill-opacity:1;fill-rule:nonzero;stroke:none"
         id="path20" /><path
         d="m 3804.94,6486.06 c -1.62,-84.24 -52.26,-161.61 -132.36,-191.39 -80.7,-30 -173.08,-5.54 -228.58,60.15 -120.53,142.7 9.36,365.97 192.85,332.44 97.64,-17.84 166.2,-103.19 168.09,-201.2 1.04,-54.1 85.21,-54.27 84.17,0 -2.35,121.39 -75.93,227.96 -189.87,270.92 -111.87,42.19 -245.26,5.49 -320.52,-87.1 -75.52,-92.92 -88.03,-225.31 -27.06,-329.39 62.38,-106.5 187.21,-160.24 307.57,-136.79 134.09,26.11 227.3,148.39 229.88,282.36 1.04,54.18 -83.13,54.18 -84.17,0"
         style="fill:#040606;fill-opacity:1;fill-rule:nonzero;stroke:none"
         id="path22" /><path
         d="m 759.895,2487.19 310.315,-297.52 h 4158.82 l 220.74,297.52 H 759.895"
         style="fill:#ffffff;fill-opacity:1;fill-rule:nonzero;stroke:none"
         id="path24" /><path
         d="m 3493.09,5982.19 c 0,0 -2532.5,-140.69 -2734.363,-2716.01 h 403.733 c 0,0 177.4,2293.93 2330.63,2716.01"
         style="fill:#ffffff;fill-opacity:1;fill-rule:nonzero;stroke:none"
         id="path26" /><path
         d="m 1445.96,673.949 c -39.6,-19.789 -128.66,-41 -244.6,-41 -329.45,0 -499.106,205.012 -499.106,476.481 0,325.2 231.875,506.18 520.306,506.18 111.7,0 196.53,-22.61 234.7,-42.41 l -43.83,-171.08 c -43.82,18.38 -104.62,35.34 -180.98,35.34 -171.08,0 -303.985,-103.21 -303.985,-315.29 0,-190.889 113.125,-311.068 305.405,-311.068 65.04,0 137.14,14.136 179.56,31.097 l 32.53,-168.25"
         style="fill:#040606;fill-opacity:1;fill-rule:nonzero;stroke:none"
         id="path28" /><path
         d="m 1728.68,1120.75 c 0,-186.641 87.64,-318.129 231.87,-318.129 145.63,0 229.06,138.559 229.06,323.789 0,171.07 -82.01,318.12 -230.48,318.12 -145.63,0 -230.45,-138.56 -230.45,-323.78 z m 688.56,12.72 c 0,-312.478 -189.46,-501.939 -468.02,-501.939 -282.77,0 -448.18,213.5 -448.18,484.969 0,285.62 182.37,499.11 463.75,499.11 292.68,0 452.45,-219.15 452.45,-482.14"
         style="fill:#040606;fill-opacity:1;fill-rule:nonzero;stroke:none"
         id="path30" /><path
         d="m 2742.35,1120.75 c 0,-186.641 87.65,-318.129 231.87,-318.129 145.64,0 229.07,138.559 229.07,323.789 0,171.07 -82.01,318.12 -230.48,318.12 -145.63,0 -230.46,-138.56 -230.46,-323.78 z m 688.57,12.72 c 0,-312.478 -189.46,-501.939 -467.99,-501.939 -282.8,0 -448.22,213.5 -448.22,484.969 0,285.62 182.39,499.11 463.76,499.11 292.68,0 452.45,-219.15 452.45,-482.14"
         style="fill:#040606;fill-opacity:1;fill-rule:nonzero;stroke:none"
         id="path32" /><path
         d="m 3572.23,1600.07 h 213.51 v -421.36 h 4.25 c 21.2,36.77 43.82,70.7 65.04,104.64 l 216.32,316.72 h 264.4 l -315.31,-405.8 332.27,-547.18 h -251.66 l -233.3,411.44 -82.01,-100.382 V 647.09 h -213.51 v 952.98"
         style="fill:#040606;fill-opacity:1;fill-rule:nonzero;stroke:none"
         id="path34" /><path
         d="M 4656.63,1600.07 V 647.09 H 4440.3 v 952.98 h 216.33"
         style="fill:#040606;fill-opacity:1;fill-rule:nonzero;stroke:none"
         id="path36" /><path
         d="m 4843.21,647.09 v 952.98 h 251.69 l 197.95,-349.24 c 56.55,-100.39 113.11,-219.15 155.52,-326.619 h 4.24 c -14.14,125.839 -18.38,254.499 -18.38,397.309 v 278.55 h 197.94 V 647.09 h -226.21 l -203.61,367.61 c -56.55,101.8 -118.76,224.81 -165.43,336.51 l -4.25,-1.41 c 5.67,-125.84 8.49,-260.15 8.49,-415.691 V 647.09 h -197.95"
         style="fill:#040606;fill-opacity:1;fill-rule:nonzero;stroke:none"
         id="path38" /><path
         d="m 6614.76,690.922 c -66.45,-22.633 -192.3,-53.731 -318.14,-53.731 -173.9,0 -299.74,43.829 -387.42,128.668 -87.64,82 -135.72,206.43 -134.3,346.401 1.4,316.72 231.88,497.7 544.34,497.7 123.03,0 217.76,-24.04 264.42,-46.66 l -45.27,-172.49 c -52.31,22.62 -117.33,41 -221.97,41 -179.56,0 -315.3,-101.8 -315.3,-308.23 0,-196.541 123,-312.478 299.74,-312.478 49.5,0 89.09,5.648 106.06,14.136 V 1024.6 h -147.05 v 168.26 h 354.89 V 690.922"
         style="fill:#040606;fill-opacity:1;fill-rule:nonzero;stroke:none"
         id="path40" /><path
         d="m 2501.48,118.641 c -1.32,35.859 -2.66,79.238 -2.66,122.621 h -1.33 c -9.29,-38.071 -21.68,-80.571 -33.2,-115.532 L 2427.99,9.30078 h -52.68 L 2343.43,124.84 c -9.71,34.969 -19.91,77.461 -26.99,116.422 h -0.89 c -1.77,-40.293 -3.08,-86.332 -5.31,-123.5 L 2304.93,4.42969 h -62.42 l 19.04,298.35931 h 89.87 l 29.19,-99.598 c 9.31,-34.531 18.61,-71.711 25.25,-106.6793 h 1.31 c 8.43,34.5273 18.62,73.9183 28.33,107.1173 l 31.88,99.16 h 88.1 L 2571.85,4.42969 h -65.95 l -4.42,114.21131"
         style="fill:#040606;fill-opacity:1;fill-rule:nonzero;stroke:none"
         id="path42" /><path
         d="m 3033.24,131.48 -18.6,63.301 c -5.31,17.699 -10.62,39.84 -15.04,57.551 h -0.89 c -4.43,-17.711 -8.85,-40.293 -13.71,-57.551 L 2967.29,131.48 Z M 2957.53,81.0117 2936.28,4.42969 h -69.92 l 91.17,298.35931 h 88.53 L 3138.6,4.42969 h -72.61 l -23.02,76.58201 h -85.44"
         style="fill:#040606;fill-opacity:1;fill-rule:nonzero;stroke:none"
         id="path44" /><path
         d="m 3446.36,73.9297 c 18.15,-9.3008 46.05,-18.5977 74.81,-18.5977 30.98,0 47.37,12.8477 47.37,32.3203 0,18.5897 -14.16,29.2187 -50.03,42.0587 -49.58,17.258 -81.9,44.711 -81.9,88.09 0,50.898 42.49,89.859 112.89,89.859 33.64,0 58.44,-7.078 76.14,-15.051 l -15.06,-54.449 c -11.93,5.75 -33.18,14.172 -62.42,14.172 -29.2,0 -43.36,-13.281 -43.36,-28.781 0,-19.031 16.8,-27.442 55.32,-42.051 52.69,-19.48 77.48,-46.93 77.48,-88.9805 C 3637.6,42.5 3599.08,0 3517.19,0 c -34.09,0 -67.74,8.85938 -84.56,18.1602 l 13.73,55.7695"
         style="fill:#040606;fill-opacity:1;fill-rule:nonzero;stroke:none"
         id="path46" /><path
         d="m 4006.44,246.129 h -80.14 v 56.66 h 229.33 v -56.66 h -81.45 V 4.42969 h -67.74 V 246.129"
         style="fill:#040606;fill-opacity:1;fill-rule:nonzero;stroke:none"
         id="path48" /><path
         d="M 4634.66,130.59 H 4524.88 V 59.7617 h 122.63 V 4.42969 H 4457.16 V 302.789 h 184.15 V 247.461 H 4524.88 V 185.48 h 109.78 v -54.89"
         style="fill:#040606;fill-opacity:1;fill-rule:nonzero;stroke:none"
         id="path50" /><path
         d="m 5026.07,170.43 h 26.55 c 33.65,0 53.58,16.82 53.58,42.941 0,27.438 -18.6,41.168 -49.58,41.609 -16.39,0 -25.68,-1.32 -30.55,-2.21 z m -66.84,128.379 c 21.7,3.543 54.01,6.191 89.86,6.191 44.27,0 75.27,-6.641 96.52,-23.461 17.71,-14.16 27.42,-34.969 27.42,-62.418 0,-38.062 -26.99,-64.191 -52.66,-73.48 v -1.321 c 20.79,-8.418 32.32,-28.34 39.83,-55.7809 9.29,-33.6407 18.59,-72.5977 24.37,-84.10941 h -69.07 c -4.87,8.40231 -11.96,32.76171 -20.81,69.50001 -7.97,37.1913 -20.82,47.3593 -48.24,47.8123 h -20.38 V 4.42969 h -66.84 V 298.809"
         style="fill:#040606;fill-opacity:1;fill-rule:nonzero;stroke:none"
         id="path52" /></g></g></svg>
